<svg width="20" height="20" viewBox="0 0 20 20" fill="none" xmlns="http://www.w3.org/2000/svg">
<path fill-rule="evenodd" clip-rule="evenodd" d="M11.8993 2.30819C10.8327 1.45819 9.16598 1.44985 8.10765 2.29985L2.64932 6.67485C1.86598 7.29985 1.39098 8.54985 1.55765 9.53318L2.60765 15.8165C2.84932 17.2249 4.15765 18.3332 5.58265 18.3332H14.416C15.8243 18.3332 17.1576 17.1999 17.3993 15.8082L18.4493 9.52485C18.5993 8.54985 18.1243 7.29985 17.3577 6.67485L11.8993 2.30819ZM9.99932 15.6249C9.65765 15.6249 9.37432 15.3415 9.37432 14.9999V12.4999C9.37432 12.1582 9.65765 11.8749 9.99932 11.8749C10.341 11.8749 10.6243 12.1582 10.6243 12.4999V14.9999C10.6243 15.3415 10.341 15.6249 9.99932 15.6249Z" fill="#292D32"/>
</svg>
