<svg width="20" height="20" viewBox="0 0 20 20" fill="none" xmlns="http://www.w3.org/2000/svg">
<path fill-rule="evenodd" clip-rule="evenodd" d="M9.58366 17.5001C5.2114 17.5001 1.66699 13.9557 1.66699 9.58341C1.66699 5.21116 5.2114 1.66675 9.58366 1.66675C13.9559 1.66675 17.5003 5.21116 17.5003 9.58341C17.5003 13.9557 13.9559 17.5001 9.58366 17.5001Z" fill="#292D32"/>
<path d="M17.3418 18.1656L15.7918 16.6156C15.5668 16.3906 15.5668 16.0239 15.7918 15.7906C16.0168 15.5656 16.3835 15.5656 16.6168 15.7906L18.1668 17.3406C18.3918 17.5656 18.3918 17.9322 18.1668 18.1656C18.0501 18.2739 17.9001 18.3322 17.7501 18.3322C17.6001 18.3322 17.4501 18.2739 17.3418 18.1656Z" fill="#292D32"/>
</svg>
