<svg width="20" height="20" viewBox="0 0 20 20" fill="none" xmlns="http://www.w3.org/2000/svg">
<path d="M6.04199 5.62508C6.04199 7.76675 7.71699 9.50008 9.90033 9.57508C9.96699 9.56675 10.0337 9.56675 10.0837 9.57508C10.1003 9.57508 10.1087 9.57508 10.1253 9.57508C10.1337 9.57508 10.1337 9.57508 10.142 9.57508C12.2753 9.50008 13.9503 7.76675 13.9587 5.62508C13.9587 3.44175 12.1837 1.66675 10.0003 1.66675C7.81699 1.66675 6.04199 3.44175 6.04199 5.62508Z" fill="#292D32"/>
<path d="M5.77546 11.7907C4.71712 12.499 4.13379 13.4573 4.13379 14.4823C4.13379 15.5073 4.71712 16.4573 5.76712 17.1573C6.93379 17.9407 8.46712 18.3323 10.0005 18.3323C11.5338 18.3323 13.0671 17.9407 14.2338 17.1573C15.2838 16.449 15.8671 15.499 15.8671 14.4657C15.8588 13.4407 15.2838 12.4907 14.2338 11.7907C11.9088 10.2407 8.11712 10.2407 5.77546 11.7907Z" fill="#292D32"/>
</svg>
