<svg width="500" height="500" viewBox="0 0 500 500" fill="none" xmlns="http://www.w3.org/2000/svg">
<g clip-path="url(#clip0_420_2647)">
<path d="M550 -50H-50V550H550V-50Z" fill="white"/>
<path d="M550 -50H-50V550H550V-50Z" fill="#383838"/>
<path d="M222.495 248.49C222.495 248.99 222.396 249.474 222.209 249.938C222.016 250.401 221.74 250.813 221.386 251.167C221.032 251.521 220.625 251.792 220.162 251.984C219.698 252.177 219.214 252.271 218.714 252.271C218.209 252.271 217.729 252.177 217.266 251.984C216.802 251.792 216.391 251.521 216.037 251.167C215.683 250.813 215.412 250.401 215.219 249.938C215.026 249.474 214.933 248.99 214.933 248.49C214.933 247.99 215.026 247.505 215.219 247.042C215.412 246.578 215.683 246.172 216.037 245.818C216.391 245.464 216.802 245.188 217.266 244.995C217.729 244.802 218.209 244.708 218.714 244.708C219.214 244.708 219.698 244.802 220.162 244.995C220.625 245.188 221.032 245.464 221.386 245.818C221.74 246.172 222.016 246.578 222.209 247.042C222.396 247.505 222.495 247.99 222.495 248.49Z" fill="white"/>
<path d="M284.567 248.49C284.567 248.99 284.474 249.474 284.281 249.938C284.088 250.401 283.812 250.813 283.458 251.167C283.104 251.521 282.698 251.792 282.234 251.984C281.771 252.177 281.286 252.271 280.786 252.271C280.286 252.271 279.802 252.177 279.338 251.984C278.875 251.792 278.463 251.521 278.109 251.167C277.755 250.813 277.484 250.401 277.291 249.938C277.099 249.474 277.005 248.99 277.005 248.49C277.005 247.99 277.099 247.505 277.291 247.042C277.484 246.578 277.755 246.172 278.109 245.818C278.463 245.464 278.875 245.188 279.338 244.995C279.802 244.802 280.286 244.708 280.786 244.708C281.286 244.708 281.771 244.802 282.234 244.995C282.698 245.188 283.104 245.464 283.458 245.818C283.812 246.172 284.088 246.578 284.281 247.042C284.474 247.505 284.567 247.99 284.567 248.49Z" fill="white"/>
<mask id="mask0_420_2647" style="mask-type:luminance" maskUnits="userSpaceOnUse" x="161" y="112" width="178" height="178">
<path d="M161.417 112.958H338.417V289.958H161.417V112.958Z" fill="white"/>
</mask>
<g mask="url(#mask0_420_2647)">
<path d="M249.98 112.906C201.074 112.906 161.428 152.557 161.428 201.458C161.428 250.365 201.074 290.016 249.98 290.016C298.886 290.016 338.537 250.365 338.537 201.458C338.537 152.557 298.886 112.906 249.98 112.906ZM225.782 235.521H280.787C287.938 235.521 293.756 241.339 293.756 248.49C293.756 255.641 287.938 261.458 280.787 261.458C273.636 261.458 267.818 255.641 267.818 248.49C267.818 247.177 268.016 245.906 268.381 244.708H231.115C231.48 245.906 231.683 247.172 231.683 248.49C231.683 255.641 225.865 261.458 218.714 261.458C211.563 261.458 205.745 255.641 205.745 248.49C205.745 242.104 210.391 236.792 216.48 235.729L214.199 223.172L214.178 223.052L202.084 163.208L190.975 163.281L190.912 154.094L209.589 153.969L214.11 176.333L297.844 186.375L287.209 226.906H224.214L225.782 235.521Z" fill="white"/>
</g>
<path d="M94.6208 351.518C106.079 351.518 112.871 346.122 112.871 337.039C112.871 329.393 107.912 324.914 96.7249 322.414C90.7874 321.101 88.6208 319.643 88.6208 317.268C88.6208 315.039 90.5999 313.643 93.6833 313.643C97.3708 313.643 99.4958 315.56 99.4958 319.06H111.996C111.996 309.56 104.767 303.435 93.4333 303.435C82.5583 303.435 75.8291 308.831 75.8291 317.539C75.8291 325.31 80.9124 330.122 91.3291 332.101C96.9124 333.206 99.6208 334.935 99.6208 337.56C99.6208 339.872 97.6416 341.185 94.4124 341.185C90.5999 341.185 88.3499 339.143 88.3499 335.581H75.5166C75.5166 345.539 82.6208 351.518 94.6208 351.518Z" fill="#A2A2A2" fill-opacity="0.4"/>
<path d="M119.704 350.539H132.35V331.768C132.35 327.539 134.517 325.185 138.017 325.185C141.371 325.185 143.35 327.351 143.35 331.435V350.539H155.996V330.122C155.996 320.706 150.392 314.706 141.433 314.706C136.767 314.706 132.683 316.351 130.1 319.247L128.787 315.685H119.704V350.539Z" fill="#A2A2A2" fill-opacity="0.4"/>
<path d="M175.743 351.331C180.764 351.331 184.972 349.685 187.93 346.726L189.326 350.539H198.41V330.247C198.41 320.31 192.16 314.706 180.951 314.706C171.201 314.706 165.347 319.122 164.285 327.143H176.139C176.472 325.101 178.451 323.726 181.014 323.726C183.847 323.726 186.097 325.372 186.097 327.685V329.664H174.368C167.18 329.664 162.576 333.935 162.576 340.331C162.576 347.122 167.722 351.331 175.743 351.331ZM174.951 339.726C174.951 337.768 176.68 336.581 179.368 336.581H186.222C186.222 340.393 183.326 342.956 179.514 342.956C176.805 342.956 174.951 341.706 174.951 339.726Z" fill="#A2A2A2" fill-opacity="0.4"/>
<path d="M229.032 351.518C239.573 351.518 246.886 344.018 246.886 333.081C246.886 322.289 239.573 314.706 229.032 314.706C224.157 314.706 220.011 316.351 216.969 319.185L215.657 315.685H206.573V363.706H219.219V348.831C221.927 350.539 225.282 351.518 229.032 351.518ZM218.761 333.081C218.761 328.476 221.927 325.185 226.594 325.185C231.282 325.185 234.427 328.476 234.427 333.081C234.427 337.768 231.282 341.06 226.594 341.06C221.927 341.06 218.761 337.768 218.761 333.081Z" fill="#A2A2A2" fill-opacity="0.4"/>
<path d="M270.333 351.518C281.791 351.518 288.583 346.122 288.583 337.039C288.583 329.393 283.624 324.914 272.437 322.414C266.499 321.101 264.333 319.643 264.333 317.268C264.333 315.039 266.312 313.643 269.395 313.643C273.083 313.643 275.208 315.56 275.208 319.06H287.708C287.708 309.56 280.479 303.435 269.145 303.435C258.27 303.435 251.541 308.831 251.541 317.539C251.541 325.31 256.624 330.122 267.041 332.101C272.624 333.206 275.333 334.935 275.333 337.56C275.333 339.872 273.354 341.185 270.124 341.185C266.312 341.185 264.062 339.143 264.062 335.581H251.229C251.229 345.539 258.333 351.518 270.333 351.518Z" fill="#A2A2A2" fill-opacity="0.4"/>
<path d="M295.417 350.539H308.063V331.768C308.063 327.539 310.229 325.185 313.729 325.185C317.084 325.185 319.063 327.351 319.063 331.435V350.539H331.709V330.122C331.709 320.622 326.25 314.706 317.417 314.706C313.792 314.706 310.5 315.747 308.063 317.664V301.789H295.417V350.539Z" fill="#A2A2A2" fill-opacity="0.4"/>
<path d="M357.789 351.518C369.851 351.518 378.018 344.081 378.018 333.081C378.018 322.143 369.851 314.706 357.789 314.706C345.664 314.706 337.497 322.143 337.497 333.081C337.497 344.081 345.664 351.518 357.789 351.518ZM349.872 333.081C349.872 328.476 353.185 325.185 357.789 325.185C362.393 325.185 365.622 328.476 365.622 333.081C365.622 337.768 362.393 341.06 357.789 341.06C353.185 341.06 349.872 337.768 349.872 333.081Z" fill="#A2A2A2" fill-opacity="0.4"/>
<path d="M406.917 351.518C417.459 351.518 424.771 344.018 424.771 333.081C424.771 322.289 417.459 314.706 406.917 314.706C402.042 314.706 397.896 316.351 394.855 319.185L393.542 315.685H384.459V363.706H397.105V348.831C399.813 350.539 403.167 351.518 406.917 351.518ZM396.646 333.081C396.646 328.476 399.813 325.185 404.48 325.185C409.167 325.185 412.313 328.476 412.313 333.081C412.313 337.768 409.167 341.06 404.48 341.06C399.813 341.06 396.646 337.768 396.646 333.081Z" fill="#A2A2A2" fill-opacity="0.4"/>
<path d="M94.6208 351.518C106.079 351.518 112.871 346.122 112.871 337.039C112.871 329.393 107.912 324.914 96.7249 322.414C90.7874 321.101 88.6208 319.643 88.6208 317.268C88.6208 315.039 90.5999 313.643 93.6833 313.643C97.3708 313.643 99.4958 315.56 99.4958 319.06H111.996C111.996 309.56 104.767 303.435 93.4333 303.435C82.5583 303.435 75.8291 308.831 75.8291 317.539C75.8291 325.31 80.9124 330.122 91.3291 332.101C96.9124 333.206 99.6208 334.935 99.6208 337.56C99.6208 339.872 97.6416 341.185 94.4124 341.185C90.5999 341.185 88.3499 339.143 88.3499 335.581H75.5166C75.5166 345.539 82.6208 351.518 94.6208 351.518Z" fill="white"/>
<path d="M119.704 350.539H132.35V331.768C132.35 327.539 134.517 325.185 138.017 325.185C141.371 325.185 143.35 327.351 143.35 331.435V350.539H155.996V330.122C155.996 320.706 150.392 314.706 141.433 314.706C136.767 314.706 132.683 316.351 130.1 319.247L128.787 315.685H119.704V350.539Z" fill="white"/>
<path d="M175.743 351.331C180.764 351.331 184.972 349.685 187.93 346.726L189.326 350.539H198.41V330.247C198.41 320.31 192.16 314.706 180.951 314.706C171.201 314.706 165.347 319.122 164.285 327.143H176.139C176.472 325.101 178.451 323.726 181.014 323.726C183.847 323.726 186.097 325.372 186.097 327.685V329.664H174.368C167.18 329.664 162.576 333.935 162.576 340.331C162.576 347.122 167.722 351.331 175.743 351.331ZM174.951 339.726C174.951 337.768 176.68 336.581 179.368 336.581H186.222C186.222 340.393 183.326 342.956 179.514 342.956C176.805 342.956 174.951 341.706 174.951 339.726Z" fill="white"/>
<path d="M229.032 351.518C239.573 351.518 246.886 344.018 246.886 333.081C246.886 322.289 239.573 314.706 229.032 314.706C224.157 314.706 220.011 316.351 216.969 319.185L215.657 315.685H206.573V363.706H219.219V348.831C221.927 350.539 225.282 351.518 229.032 351.518ZM218.761 333.081C218.761 328.476 221.927 325.185 226.594 325.185C231.282 325.185 234.427 328.476 234.427 333.081C234.427 337.768 231.282 341.06 226.594 341.06C221.927 341.06 218.761 337.768 218.761 333.081Z" fill="white"/>
<path d="M270.333 351.518C281.791 351.518 288.583 346.122 288.583 337.039C288.583 329.393 283.624 324.914 272.437 322.414C266.499 321.101 264.333 319.643 264.333 317.268C264.333 315.039 266.312 313.643 269.395 313.643C273.083 313.643 275.208 315.56 275.208 319.06H287.708C287.708 309.56 280.479 303.435 269.145 303.435C258.27 303.435 251.541 308.831 251.541 317.539C251.541 325.31 256.624 330.122 267.041 332.101C272.624 333.206 275.333 334.935 275.333 337.56C275.333 339.872 273.354 341.185 270.124 341.185C266.312 341.185 264.062 339.143 264.062 335.581H251.229C251.229 345.539 258.333 351.518 270.333 351.518Z" fill="white"/>
<path d="M295.417 350.539H308.063V331.768C308.063 327.539 310.229 325.185 313.729 325.185C317.084 325.185 319.063 327.351 319.063 331.435V350.539H331.709V330.122C331.709 320.622 326.25 314.706 317.417 314.706C313.792 314.706 310.5 315.747 308.063 317.664V301.789H295.417V350.539Z" fill="white"/>
<path d="M357.789 351.518C369.851 351.518 378.018 344.081 378.018 333.081C378.018 322.143 369.851 314.706 357.789 314.706C345.664 314.706 337.497 322.143 337.497 333.081C337.497 344.081 345.664 351.518 357.789 351.518ZM349.872 333.081C349.872 328.476 353.185 325.185 357.789 325.185C362.393 325.185 365.622 328.476 365.622 333.081C365.622 337.768 362.393 341.06 357.789 341.06C353.185 341.06 349.872 337.768 349.872 333.081Z" fill="white"/>
<path d="M406.917 351.518C417.459 351.518 424.771 344.018 424.771 333.081C424.771 322.289 417.459 314.706 406.917 314.706C402.042 314.706 397.896 316.351 394.855 319.185L393.542 315.685H384.459V363.706H397.105V348.831C399.813 350.539 403.167 351.518 406.917 351.518ZM396.646 333.081C396.646 328.476 399.813 325.185 404.48 325.185C409.167 325.185 412.313 328.476 412.313 333.081C412.313 337.768 409.167 341.06 404.48 341.06C399.813 341.06 396.646 337.768 396.646 333.081Z" fill="white"/>
<path d="M151.763 392.271H158.159V391.062H153.054V387.646H157.617V386.458H153.054V383.208H157.992V382H151.763V392.271Z" fill="white"/>
<path d="M164.435 389.462H168.914V388.316H164.435V389.462Z" fill="white"/>
<path d="M180.288 392.795C182.788 392.795 184.809 391.295 185.413 389.003H184.059C183.538 390.545 182.08 391.503 180.33 391.503C178.038 391.503 176.413 389.857 176.413 387.482C176.413 385.107 178.038 383.441 180.33 383.441C182.038 383.441 183.434 384.357 183.955 385.836H185.33C184.663 383.566 182.705 382.149 180.288 382.149C177.267 382.149 175.101 384.378 175.101 387.482C175.101 390.566 177.267 392.795 180.288 392.795Z" fill="white"/>
<path d="M196.582 392.795C199.707 392.795 201.895 390.607 201.895 387.482C201.895 384.357 199.707 382.149 196.582 382.149C193.457 382.149 191.27 384.357 191.27 387.482C191.27 390.607 193.457 392.795 196.582 392.795ZM192.582 387.482C192.582 385.086 194.207 383.441 196.582 383.441C198.936 383.441 200.561 385.086 200.561 387.482C200.561 389.857 198.936 391.503 196.582 391.503C194.207 391.503 192.582 389.857 192.582 387.482Z" fill="white"/>
<path d="M208.437 392.607H209.728V384.753L213.124 389.878H214.187L217.582 384.753V392.607H218.874V382.336H217.666L213.666 388.42L209.645 382.336H208.437V392.607Z" fill="white"/>
<path d="M226.07 392.607H227.362V384.753L230.758 389.878H231.82L235.216 384.753V392.607H236.508V382.336H235.299L231.299 388.42L227.279 382.336H226.07V392.607Z" fill="white"/>
<path d="M243.705 392.607H250.101V391.399H244.997V387.982H249.559V386.795H244.997V383.545H249.934V382.336H243.705V392.607Z" fill="white"/>
<path d="M256.752 392.607H258.044V388.92H260.294L262.814 392.607H264.356L261.773 388.795C263.273 388.42 264.189 387.295 264.189 385.649C264.189 383.607 262.794 382.336 260.669 382.336H256.752V392.607ZM258.044 387.691V383.566H260.523C262.023 383.566 262.877 384.336 262.877 385.649C262.877 386.941 262.023 387.691 260.523 387.691H258.044Z" fill="white"/>
<path d="M275.484 392.795C277.984 392.795 280.005 391.295 280.609 389.003H279.255C278.734 390.545 277.276 391.503 275.526 391.503C273.234 391.503 271.609 389.857 271.609 387.482C271.609 385.107 273.234 383.441 275.526 383.441C277.234 383.441 278.63 384.357 279.151 385.836H280.526C279.859 383.566 277.901 382.149 275.484 382.149C272.464 382.149 270.297 384.378 270.297 387.482C270.297 390.566 272.464 392.795 275.484 392.795Z" fill="white"/>
<path d="M287.111 392.607H293.507V391.399H288.403V387.982H292.965V386.795H288.403V383.545H293.34V382.336H287.111V392.607Z" fill="white"/>
<path d="M306.753 392.607H308.128L309.065 390.274H314.065L315.045 392.607H316.399L312.17 382.336H310.982L306.753 392.607ZM309.565 389.066L311.586 384.149L313.586 389.066H309.565Z" fill="white"/>
<path d="M322.354 392.607H323.646V389.232H325.834C328.146 389.232 329.646 387.899 329.646 385.795C329.646 383.691 328.146 382.336 325.834 382.336H322.354V392.607ZM323.646 388.024V383.566H325.792C327.459 383.566 328.313 384.336 328.313 385.795C328.313 387.274 327.459 388.024 325.792 388.024H323.646Z" fill="white"/>
<path d="M335.929 392.607H337.22V389.232H339.408C341.72 389.232 343.22 387.899 343.22 385.795C343.22 383.691 341.72 382.336 339.408 382.336H335.929V392.607ZM337.22 388.024V383.566H339.366C341.033 383.566 341.887 384.336 341.887 385.795C341.887 387.274 341.033 388.024 339.366 388.024H337.22Z" fill="white"/>
</g>
<defs>
<clipPath id="clip0_420_2647">
<rect width="500" height="500" fill="white"/>
</clipPath>
</defs>
</svg>
