<svg width="20" height="20" viewBox="0 0 20 20" fill="none" xmlns="http://www.w3.org/2000/svg">
<path d="M1.66699 1.66675H3.117C4.017 1.66675 4.72533 2.44175 4.65033 3.33341L3.95866 11.6334C3.84199 12.9917 4.91699 14.1584 6.28365 14.1584H15.1587C16.3587 14.1584 17.4087 13.1751 17.5003 11.9834L17.9503 5.73342C18.0503 4.35009 17.0003 3.22508 15.6087 3.22508H4.85033" stroke="#292D32" stroke-width="1.25" stroke-linecap="round" stroke-linejoin="round"/>
<path fill-rule="evenodd" clip-rule="evenodd" d="M13.5417 18.3333C12.9664 18.3333 12.5 17.867 12.5 17.2917C12.5 16.7164 12.9664 16.25 13.5417 16.25C14.117 16.25 14.5833 16.7164 14.5833 17.2917C14.5833 17.867 14.117 18.3333 13.5417 18.3333Z" stroke="#292D32" stroke-width="1.25" stroke-linecap="round" stroke-linejoin="round"/>
<path fill-rule="evenodd" clip-rule="evenodd" d="M6.87467 18.3333C6.29938 18.3333 5.83301 17.867 5.83301 17.2917C5.83301 16.7164 6.29938 16.25 6.87467 16.25C7.44997 16.25 7.91634 16.7164 7.91634 17.2917C7.91634 17.867 7.44997 18.3333 6.87467 18.3333Z" stroke="#292D32" stroke-width="1.25" stroke-linecap="round" stroke-linejoin="round"/>
<path d="M7.5 6.66675H17.5" stroke="#292D32" stroke-width="1.25" stroke-linecap="round" stroke-linejoin="round"/>
</svg>
